<?xml version="1.0" encoding="utf-8"?>
<svg xmlns="http://www.w3.org/2000/svg" viewBox="-593.841 -60.091 1698.286 572.463">
  <path class="st0" d="M -345.21 32.637 C -364.74 32.854 -383.75 39.01 -401.01 50.102 C -413.64 58.31 -425.4 69.199 -435.43 82.615 L -521.6 196.67 L -523.2 41.69 C -523.75 20.179 -519.44 -0.535 -511.11 -17.896 L -562.61 50.62 C -572.13 63.323 -579.12 79.113 -581.82 96.554 C -583.01 104.495 -583.56 112.709 -583.34 121.061 L -583.34 242.653 L -583.34 337.351 C -583.34 337.351 -541.23 336.884 -541.23 336.884 C -541.23 336.884 -408.9 335.416 -408.9 335.416 C -402.53 335.628 -396.25 334.851 -390.21 333.227 C -376.95 329.681 -364.96 320.206 -355.35 307.644 L -303.54 239.549 C -316.7 250.735 -332.47 256.573 -348.87 255.904 L -459.85 255.013 L -392.48 163.105 C -386.22 154.826 -379.3 147.388 -371.97 141.08 C -362.47 132.905 -352.31 126.422 -341.64 121.775 C -333.97 118.999 -325.97 117.354 -317.88 117.265 L -234.01 116.334 C -227.54 116.262 -221.16 114.21 -215.44 110.607 C -211.01 107.871 -206.91 104.001 -203.36 99.432 L -151.22 30.485 L -345.32 32.639 L -345.21 32.637 Z" style="fill: rgb(255, 255, 255);"/>
  <path class="st0" d="M -265.75 448.342 C -246.2 448.126 -227.2 441.97 -209.95 430.879 C -197.3 422.67 -185.53 411.781 -175.5 398.365 L -89.363 284.308 L -87.734 439.29 C -87.184 460.801 -91.522 481.514 -99.83 498.876 L -48.332 430.36 C -38.833 417.656 -31.805 401.866 -29.115 384.425 C -27.925 376.485 -27.377 368.269 -27.596 359.92 L -27.596 238.327 L -27.596 143.629 C -27.596 143.629 -69.708 144.096 -69.708 144.096 C -69.708 144.096 -200.21 145.544 -200.21 145.544 C -206.58 145.332 -212.84 146.109 -218.9 147.731 C -232.16 151.278 -244.15 160.752 -253.76 173.316 L -305.57 241.411 C -292.39 230.224 -276.63 224.387 -260.24 225.054 L -151.11 225.967 L -218.47 317.874 C -224.72 326.152 -231.62 333.589 -238.97 339.899 C -248.47 348.074 -258.63 354.556 -269.3 359.205 C -276.97 361.979 -284.94 363.625 -293.07 363.715 L -376.95 364.645 C -383.42 364.717 -389.77 366.769 -395.5 370.37 C -399.93 373.11 -404.03 376.977 -407.6 381.546 L -459.74 450.495 L -265.64 448.341 L -265.75 448.342 Z" style="fill: rgb(255, 255, 255);"/>
  <g transform="matrix(1.079505, -0.011978, 0, 1.415518, -811.542076, -1166.793734)" style="">
    <path class="st0" d="M1315.2,1008.1v-87.8c0-34.5-27.9-62.4-62.3-62.6l-170.1-.6v288.2h70.6l1.2-76.9h3.6c18.2,0,35.1,9.6,44.4,25.3l18.3,33.2c6.7,11.3,18.9,18.3,32,18.3h73l-60.4-84.7c27.9-1.4,49.8-24.5,49.8-52.4ZM1248.1,978.2c0,14.7-12.2,26.5-26.9,26.1l-66.6-1.7v-79.7h69.1c13.5,0,24.4,10.9,24.4,24.4v30.9Z" style="fill: rgb(255, 255, 255);"/>
    <path class="st0" d="M1632.8,921.3h26.2c8.6,0,16.6,4.3,20.7,11.1l6.8,11.4c2.9,4.9,8.6,8.1,14.8,8.3l53.5,1v-21.7c0-40.9-38.1-74-83.8-74h-63.3c-1.7,0-9.4,0-11.1.2l6-.2h-6c-36.1,0-59.4,29.3-59.4,65.4v40.2c0,36.1,31.4,65.9,71.7,68.1l53.6,3.2c12.6.7,22.4,10,22.4,21.3h0c0,11.8-10.7,21.4-23.9,21.4h-26.6c-8.6,0-16.6-4.3-20.7-11.1l-6.4-10.7c-2.9-4.9-8.6-8.1-14.8-8.3l-55.5-1v20.9c0,40.9,37.1,74,82.8,74h66.3c38.9,0,70.5-28.2,70.5-63v-40.1c0-36.1-31.4-65.9-71.7-68.1l-53.6-3.2c-12.6-.7-22.4-10-22.4-21.3v-2.5c0-11.8,10.7-21.4,23.9-21.4Z" style="fill: rgb(255, 255, 255);"/>
    <path class="st0" d="M1407,942.3c0-11.1,9-20.2,20.2-20.2h40.4c9.7,0,18.9-3.8,25.7-10.7l54.1-54.1h-154.1c-33,0-59.7,26.7-59.7,59.7v228.1h71.3v-90.3c0-11.1,9-20.2,20.2-20.2h16.2c16.4,0,32.2-6.5,43.8-18.2l43-48.1h-121.2v-26.1Z" style="fill: rgb(255, 255, 255);"/>
    <path class="st0" d="M914.2,894.9l-58.3,140-45.9,110.3h42c23.3,0,44.6-13,55.3-33.7,4.4-8.6,10.5-9.3,20.2-9.3h72.9l2.6,43h65.9v-288.3l-97.2-.2c-25.2,0-47.9,15-57.6,38.2ZM992.9,920.5l7.4-.3v114.7h-69.2l38.9-98.1c3.8-9.5,12.8-15.9,23-16.3Z" style="fill: rgb(255, 255, 255);"/>
    <path class="st0" d="M1320.3,893.4h0c0-23.1,18.7-41.8,41.8-41.8h0c-23.1,0-41.8-18.7-41.8-41.8h0c0,23.1-18.7,41.8-41.8,41.8h0c23.1,0,41.8,18.7,41.8,41.8Z" style="fill: rgb(255, 255, 255);"/>
  </g>
</svg>