<svg width="200" height="198" viewBox="0 0 200 198" fill="none" xmlns="http://www.w3.org/2000/svg">
<path d="M0 98.6209C0 153.001 44.8596 197.242 100 197.242C155.14 197.242 200 153.001 200 98.6209C200 44.241 155.142 0 100 0C44.8584 0 0 44.241 0 98.6209ZM100 179.606C54.7207 179.606 17.8838 143.277 17.8838 98.6209C17.8838 79.4646 24.6772 61.851 35.9952 47.9694L151.36 161.743C137.284 172.905 119.425 179.606 100 179.606ZM182.116 98.6209C182.116 117.777 175.323 135.391 164.006 149.272L48.6402 35.4988C62.7159 24.3369 80.5759 17.6371 100 17.6371C145.279 17.6371 182.116 53.9661 182.116 98.6209Z" fill="black" fill-opacity="0.9"/>
</svg>
