<svg width="40" height="40" viewBox="0 0 40 40" fill="none" xmlns="http://www.w3.org/2000/svg">
<path d="M19.9999 39.9999C31.0456 39.9999 39.9999 31.4311 39.9999 20.8608C39.9999 10.2906 31.0456 1.72177 19.9999 1.72177C8.95427 1.72177 0 10.2906 0 20.8608C0 31.4311 8.95427 39.9999 19.9999 39.9999Z" fill="#D68F30"/>
<path d="M1.35938 25.832V27.7873C1.56858 28.3045 1.80219 28.815 2.05672 29.3088V25.832H1.35938Z" fill="#BC6F00"/>
<path d="M3.64086 29.5145V31.8635C3.9198 32.2405 4.20919 32.6109 4.51254 32.9679V29.5145H3.64086Z" fill="#BC6F00"/>
<path d="M6.65918 32.582V35.1146C6.99739 35.4048 7.34607 35.6818 7.7052 35.9487V32.582H6.65918Z" fill="#BC6F00"/>
<path d="M10.3762 34.9152V37.6379C10.7179 37.8181 11.0666 37.9882 11.4222 38.1517V34.9152H10.3762Z" fill="#BC6F00"/>
<path d="M14.593 36.3995V39.2824C14.9382 39.3758 15.2868 39.4593 15.639 39.536V36.3995H14.593Z" fill="#BC6F00"/>
<path d="M19.5269 36.9141V39.9871C19.6838 39.9905 19.8407 39.9971 20.0011 39.9971C20.1928 39.9971 20.3846 39.9871 20.5729 39.9838V36.9141H19.5269Z" fill="#BC6F00"/>
<path d="M24.4575 36.376V39.5124C24.8097 39.4357 25.1584 39.3489 25.5035 39.2555V36.376H24.4575Z" fill="#BC6F00"/>
<path d="M28.6656 34.8721V38.112C29.0213 37.9485 29.3699 37.7716 29.7116 37.5881V34.8721H28.6656Z" fill="#BC6F00"/>
<path d="M32.3687 32.5176V35.8876C32.7276 35.6192 33.0764 35.3387 33.4147 35.0468V32.5176H32.3687Z" fill="#BC6F00"/>
<path d="M36.4184 29.4404H35.5467V32.8938C35.85 32.5334 36.1429 32.1631 36.4184 31.7827V29.4404Z" fill="#BC6F00"/>
<path d="M38.6847 25.7451H37.9873V29.2286C38.2418 28.7248 38.4754 28.2076 38.6847 27.6837V25.7451Z" fill="#BC6F00"/>
<path d="M19.9999 38.2782C31.0456 38.2782 39.9999 29.7093 39.9999 19.1391C39.9999 8.56886 31.0456 0 19.9999 0C8.95427 0 0 8.56886 0 19.1391C0 29.7093 8.95427 38.2782 19.9999 38.2782Z" fill="#FFF176"/>
<path d="M20.0004 36.5751C30.0621 36.5751 38.2186 28.7696 38.2186 19.1411C38.2186 9.51251 30.0621 1.70703 20.0004 1.70703C9.9388 1.70703 1.78223 9.51251 1.78223 19.1411C1.78223 28.7696 9.9388 36.5751 20.0004 36.5751Z" fill="#F2BC1A"/>
<path d="M1.74593 19.8074C1.61692 17.5118 2.03184 15.1828 2.86866 13.0006C3.74034 10.8251 5.07576 8.81314 6.75986 7.10477C10.142 3.68136 15.0513 1.69605 19.999 1.67269C24.9467 1.69938 29.8595 3.68136 33.2347 7.10811C34.9222 8.81314 36.2542 10.8285 37.1259 13.0006C37.9662 15.1862 38.3811 17.5118 38.2486 19.8074H38.1789C38.172 17.5173 37.6983 15.2506 36.7842 13.1341C35.8685 11.0201 34.5314 9.09684 32.8476 7.4718C31.1628 5.84837 29.1606 4.55814 26.955 3.67469C24.7503 2.79376 22.3848 2.34016 19.9955 2.34016C17.6063 2.34016 15.2408 2.79376 13.036 3.67469C10.8305 4.55814 8.82822 5.84837 7.1434 7.4718C5.45848 9.09596 4.12127 11.0194 3.20687 13.1341C2.29278 15.2506 1.81903 17.5173 1.81218 19.8074H1.74593Z" fill="#E08F00"/>
<path d="M19.9999 0.00292969C8.95394 0.00292969 0 8.57147 0 19.142C0 29.7125 8.95394 38.2811 19.9999 38.2811C31.0459 38.2811 39.9999 29.7125 39.9999 19.142C39.9999 8.57147 31.0459 0.00292969 19.9999 0.00292969ZM19.9999 36.576C9.9372 36.576 1.78172 28.7716 1.78172 19.142C1.78172 9.50907 9.9372 1.70463 19.9999 1.70463C30.0627 1.70463 38.2181 9.50907 38.2181 19.1387C38.2181 28.7683 30.0627 36.576 19.9999 36.576Z" fill="#FFF176"/>
</svg>
