<svg width="200" height="137" viewBox="0 0 200 137" fill="none" xmlns="http://www.w3.org/2000/svg">
<path d="M45.4273 3.5421C46.4054 3.5421 47.1984 2.74917 47.1984 1.77105C47.1984 0.792926 46.4054 0 45.4273 0C44.4492 0 43.6562 0.792926 43.6562 1.77105C43.6562 2.74917 44.4492 3.5421 45.4273 3.5421Z" fill="#E6E6E6"/>
<path d="M54.3921 3.5421C55.3703 3.5421 56.1632 2.74917 56.1632 1.77105C56.1632 0.792926 55.3703 0 54.3921 0C53.414 0 52.6211 0.792926 52.6211 1.77105C52.6211 2.74917 53.414 3.5421 54.3921 3.5421Z" fill="#E6E6E6"/>
<path d="M63.357 3.5421C64.3351 3.5421 65.128 2.74917 65.128 1.77105C65.128 0.792926 64.3351 0 63.357 0C62.3789 0 61.5859 0.792926 61.5859 1.77105C61.5859 2.74917 62.3789 3.5421 63.357 3.5421Z" fill="#E6E6E6"/>
<path d="M72.3199 3.5421C73.298 3.5421 74.0909 2.74917 74.0909 1.77105C74.0909 0.792926 73.298 0 72.3199 0C71.3418 0 70.5488 0.792926 70.5488 1.77105C70.5488 2.74917 71.3418 3.5421 72.3199 3.5421Z" fill="#E6E6E6"/>
<path d="M81.2867 3.5421C82.2648 3.5421 83.0577 2.74917 83.0577 1.77105C83.0577 0.792926 82.2648 0 81.2867 0C80.3086 0 79.5156 0.792926 79.5156 1.77105C79.5156 2.74917 80.3086 3.5421 81.2867 3.5421Z" fill="#E6E6E6"/>
<path d="M45.4273 12.6241C46.4054 12.6241 47.1984 11.8312 47.1984 10.8531C47.1984 9.87496 46.4054 9.08203 45.4273 9.08203C44.4492 9.08203 43.6562 9.87496 43.6562 10.8531C43.6562 11.8312 44.4492 12.6241 45.4273 12.6241Z" fill="#E6E6E6"/>
<path d="M54.3921 12.6241C55.3703 12.6241 56.1632 11.8312 56.1632 10.8531C56.1632 9.87496 55.3703 9.08203 54.3921 9.08203C53.414 9.08203 52.6211 9.87496 52.6211 10.8531C52.6211 11.8312 53.414 12.6241 54.3921 12.6241Z" fill="#E6E6E6"/>
<path d="M63.357 12.6241C64.3351 12.6241 65.128 11.8312 65.128 10.8531C65.128 9.87496 64.3351 9.08203 63.357 9.08203C62.3789 9.08203 61.5859 9.87496 61.5859 10.8531C61.5859 11.8312 62.3789 12.6241 63.357 12.6241Z" fill="#E6E6E6"/>
<path d="M72.3199 12.6241C73.298 12.6241 74.0909 11.8312 74.0909 10.8531C74.0909 9.87496 73.298 9.08203 72.3199 9.08203C71.3418 9.08203 70.5488 9.87496 70.5488 10.8531C70.5488 11.8312 71.3418 12.6241 72.3199 12.6241Z" fill="#16A085"/>
<path d="M81.2867 12.6241C82.2648 12.6241 83.0577 11.8312 83.0577 10.8531C83.0577 9.87496 82.2648 9.08203 81.2867 9.08203C80.3086 9.08203 79.5156 9.87496 79.5156 10.8531C79.5156 11.8312 80.3086 12.6241 81.2867 12.6241Z" fill="#E6E6E6"/>
<path d="M99.2164 12.6241C100.194 12.6241 100.987 11.8312 100.987 10.8531C100.987 9.87496 100.194 9.08203 99.2164 9.08203C98.2382 9.08203 97.4453 9.87496 97.4453 10.8531C97.4453 11.8312 98.2382 12.6241 99.2164 12.6241Z" fill="#E6E6E6"/>
<path d="M45.4273 21.6944C46.4054 21.6944 47.1984 20.9015 47.1984 19.9234C47.1984 18.9453 46.4054 18.1523 45.4273 18.1523C44.4492 18.1523 43.6562 18.9453 43.6562 19.9234C43.6562 20.9015 44.4492 21.6944 45.4273 21.6944Z" fill="#E6E6E6"/>
<path d="M54.3921 21.6944C55.3703 21.6944 56.1632 20.9015 56.1632 19.9234C56.1632 18.9453 55.3703 18.1523 54.3921 18.1523C53.414 18.1523 52.6211 18.9453 52.6211 19.9234C52.6211 20.9015 53.414 21.6944 54.3921 21.6944Z" fill="#E6E6E6"/>
<path d="M63.357 21.6944C64.3351 21.6944 65.128 20.9015 65.128 19.9234C65.128 18.9453 64.3351 18.1523 63.357 18.1523C62.3789 18.1523 61.5859 18.9453 61.5859 19.9234C61.5859 20.9015 62.3789 21.6944 63.357 21.6944Z" fill="#E6E6E6"/>
<path d="M72.3199 21.6944C73.298 21.6944 74.0909 20.9015 74.0909 19.9234C74.0909 18.9453 73.298 18.1523 72.3199 18.1523C71.3418 18.1523 70.5488 18.9453 70.5488 19.9234C70.5488 20.9015 71.3418 21.6944 72.3199 21.6944Z" fill="#E6E6E6"/>
<path d="M81.2867 21.6944C82.2648 21.6944 83.0577 20.9015 83.0577 19.9234C83.0577 18.9453 82.2648 18.1523 81.2867 18.1523C80.3086 18.1523 79.5156 18.9453 79.5156 19.9234C79.5156 20.9015 80.3086 21.6944 81.2867 21.6944Z" fill="#E6E6E6"/>
<path d="M45.4273 30.7765C46.4054 30.7765 47.1984 29.9835 47.1984 29.0054C47.1984 28.0273 46.4054 27.2344 45.4273 27.2344C44.4492 27.2344 43.6562 28.0273 43.6562 29.0054C43.6562 29.9835 44.4492 30.7765 45.4273 30.7765Z" fill="#E6E6E6"/>
<path d="M54.3921 30.7765C55.3703 30.7765 56.1632 29.9835 56.1632 29.0054C56.1632 28.0273 55.3703 27.2344 54.3921 27.2344C53.414 27.2344 52.6211 28.0273 52.6211 29.0054C52.6211 29.9835 53.414 30.7765 54.3921 30.7765Z" fill="#E6E6E6"/>
<path d="M63.357 30.7765C64.3351 30.7765 65.128 29.9835 65.128 29.0054C65.128 28.0273 64.3351 27.2344 63.357 27.2344C62.3789 27.2344 61.5859 28.0273 61.5859 29.0054C61.5859 29.9835 62.3789 30.7765 63.357 30.7765Z" fill="#E6E6E6"/>
<path d="M72.3199 30.7765C73.298 30.7765 74.0909 29.9835 74.0909 29.0054C74.0909 28.0273 73.298 27.2344 72.3199 27.2344C71.3418 27.2344 70.5488 28.0273 70.5488 29.0054C70.5488 29.9835 71.3418 30.7765 72.3199 30.7765Z" fill="#E6E6E6"/>
<path d="M81.2867 30.7765C82.2648 30.7765 83.0577 29.9835 83.0577 29.0054C83.0577 28.0273 82.2648 27.2344 81.2867 27.2344C80.3086 27.2344 79.5156 28.0273 79.5156 29.0054C79.5156 29.9835 80.3086 30.7765 81.2867 30.7765Z" fill="#E6E6E6"/>
<path d="M90.2535 30.7765C91.2316 30.7765 92.0245 29.9835 92.0245 29.0054C92.0245 28.0273 91.2316 27.2344 90.2535 27.2344C89.2753 27.2344 88.4824 28.0273 88.4824 29.0054C88.4824 29.9835 89.2753 30.7765 90.2535 30.7765Z" fill="#E6E6E6"/>
<path d="M99.2164 30.7765C100.194 30.7765 100.987 29.9835 100.987 29.0054C100.987 28.0273 100.194 27.2344 99.2164 27.2344C98.2382 27.2344 97.4453 28.0273 97.4453 29.0054C97.4453 29.9835 98.2382 30.7765 99.2164 30.7765Z" fill="#E6E6E6"/>
<path d="M108.183 30.7765C109.161 30.7765 109.954 29.9835 109.954 29.0054C109.954 28.0273 109.161 27.2344 108.183 27.2344C107.205 27.2344 106.412 28.0273 106.412 29.0054C106.412 29.9835 107.205 30.7765 108.183 30.7765Z" fill="#E6E6E6"/>
<path d="M117.146 30.7765C118.124 30.7765 118.917 29.9835 118.917 29.0054C118.917 28.0273 118.124 27.2344 117.146 27.2344C116.168 27.2344 115.375 28.0273 115.375 29.0054C115.375 29.9835 116.168 30.7765 117.146 30.7765Z" fill="#E6E6E6"/>
<path d="M126.113 30.7765C127.091 30.7765 127.884 29.9835 127.884 29.0054C127.884 28.0273 127.091 27.2344 126.113 27.2344C125.135 27.2344 124.342 28.0273 124.342 29.0054C124.342 29.9835 125.135 30.7765 126.113 30.7765Z" fill="#E6E6E6"/>
<path d="M81.2867 39.8507C82.2648 39.8507 83.0577 39.0578 83.0577 38.0796C83.0577 37.1015 82.2648 36.3086 81.2867 36.3086C80.3086 36.3086 79.5156 37.1015 79.5156 38.0796C79.5156 39.0578 80.3086 39.8507 81.2867 39.8507Z" fill="#E6E6E6"/>
<path d="M90.2535 39.8507C91.2316 39.8507 92.0245 39.0578 92.0245 38.0796C92.0245 37.1015 91.2316 36.3086 90.2535 36.3086C89.2753 36.3086 88.4824 37.1015 88.4824 38.0796C88.4824 39.0578 89.2753 39.8507 90.2535 39.8507Z" fill="#16A085"/>
<path d="M99.2164 39.8507C100.194 39.8507 100.987 39.0578 100.987 38.0796C100.987 37.1015 100.194 36.3086 99.2164 36.3086C98.2382 36.3086 97.4453 37.1015 97.4453 38.0796C97.4453 39.0578 98.2382 39.8507 99.2164 39.8507Z" fill="#E6E6E6"/>
<path d="M108.183 39.8507C109.161 39.8507 109.954 39.0578 109.954 38.0796C109.954 37.1015 109.161 36.3086 108.183 36.3086C107.205 36.3086 106.412 37.1015 106.412 38.0796C106.412 39.0578 107.205 39.8507 108.183 39.8507Z" fill="#E6E6E6"/>
<path d="M117.146 39.8507C118.124 39.8507 118.917 39.0578 118.917 38.0796C118.917 37.1015 118.124 36.3086 117.146 36.3086C116.168 36.3086 115.375 37.1015 115.375 38.0796C115.375 39.0578 116.168 39.8507 117.146 39.8507Z" fill="#E6E6E6"/>
<path d="M126.111 39.8507C127.089 39.8507 127.882 39.0578 127.882 38.0796C127.882 37.1015 127.089 36.3086 126.111 36.3086C125.133 36.3086 124.34 37.1015 124.34 38.0796C124.34 39.0578 125.133 39.8507 126.111 39.8507Z" fill="#E6E6E6"/>
<path d="M81.2867 48.9288C82.2648 48.9288 83.0577 48.1359 83.0577 47.1578C83.0577 46.1796 82.2648 45.3867 81.2867 45.3867C80.3086 45.3867 79.5156 46.1796 79.5156 47.1578C79.5156 48.1359 80.3086 48.9288 81.2867 48.9288Z" fill="#E6E6E6"/>
<path d="M90.2535 48.9288C91.2316 48.9288 92.0245 48.1359 92.0245 47.1578C92.0245 46.1796 91.2316 45.3867 90.2535 45.3867C89.2753 45.3867 88.4824 46.1796 88.4824 47.1578C88.4824 48.1359 89.2753 48.9288 90.2535 48.9288Z" fill="#E6E6E6"/>
<path d="M99.2164 48.9288C100.194 48.9288 100.987 48.1359 100.987 47.1578C100.987 46.1796 100.194 45.3867 99.2164 45.3867C98.2382 45.3867 97.4453 46.1796 97.4453 47.1578C97.4453 48.1359 98.2382 48.9288 99.2164 48.9288Z" fill="#E6E6E6"/>
<path d="M108.183 48.9288C109.161 48.9288 109.954 48.1359 109.954 47.1578C109.954 46.1796 109.161 45.3867 108.183 45.3867C107.205 45.3867 106.412 46.1796 106.412 47.1578C106.412 48.1359 107.205 48.9288 108.183 48.9288Z" fill="#E6E6E6"/>
<path d="M117.146 48.9288C118.124 48.9288 118.917 48.1359 118.917 47.1578C118.917 46.1796 118.124 45.3867 117.146 45.3867C116.168 45.3867 115.375 46.1796 115.375 47.1578C115.375 48.1359 116.168 48.9288 117.146 48.9288Z" fill="#16A085"/>
<path d="M126.111 48.9288C127.089 48.9288 127.882 48.1359 127.882 47.1578C127.882 46.1796 127.089 45.3867 126.111 45.3867C125.133 45.3867 124.34 46.1796 124.34 47.1578C124.34 48.1359 125.133 48.9288 126.111 48.9288Z" fill="#E6E6E6"/>
<path d="M81.2867 58.0089C82.2648 58.0089 83.0577 57.216 83.0577 56.2378C83.0577 55.2597 82.2648 54.4668 81.2867 54.4668C80.3086 54.4668 79.5156 55.2597 79.5156 56.2378C79.5156 57.216 80.3086 58.0089 81.2867 58.0089Z" fill="#E6E6E6"/>
<path d="M90.2535 58.0089C91.2316 58.0089 92.0245 57.216 92.0245 56.2378C92.0245 55.2597 91.2316 54.4668 90.2535 54.4668C89.2753 54.4668 88.4824 55.2597 88.4824 56.2378C88.4824 57.216 89.2753 58.0089 90.2535 58.0089Z" fill="#E6E6E6"/>
<path d="M99.2164 58.0089C100.194 58.0089 100.987 57.216 100.987 56.2378C100.987 55.2597 100.194 54.4668 99.2164 54.4668C98.2382 54.4668 97.4453 55.2597 97.4453 56.2378C97.4453 57.216 98.2382 58.0089 99.2164 58.0089Z" fill="#E6E6E6"/>
<path d="M108.183 58.0089C109.161 58.0089 109.954 57.216 109.954 56.2378C109.954 55.2597 109.161 54.4668 108.183 54.4668C107.205 54.4668 106.412 55.2597 106.412 56.2378C106.412 57.216 107.205 58.0089 108.183 58.0089Z" fill="#E6E6E6"/>
<path d="M117.146 58.0089C118.124 58.0089 118.917 57.216 118.917 56.2378C118.917 55.2597 118.124 54.4668 117.146 54.4668C116.168 54.4668 115.375 55.2597 115.375 56.2378C115.375 57.216 116.168 58.0089 117.146 58.0089Z" fill="#E6E6E6"/>
<path d="M126.111 58.0089C127.089 58.0089 127.882 57.216 127.882 56.2378C127.882 55.2597 127.089 54.4668 126.111 54.4668C125.133 54.4668 124.34 55.2597 124.34 56.2378C124.34 57.216 125.133 58.0089 126.111 58.0089Z" fill="#E6E6E6"/>
<path d="M45.4273 67.0831C46.4054 67.0831 47.1984 66.2902 47.1984 65.3121C47.1984 64.3339 46.4054 63.541 45.4273 63.541C44.4492 63.541 43.6562 64.3339 43.6562 65.3121C43.6562 66.2902 44.4492 67.0831 45.4273 67.0831Z" fill="#E6E6E6"/>
<path d="M54.3921 67.0831C55.3703 67.0831 56.1632 66.2902 56.1632 65.3121C56.1632 64.3339 55.3703 63.541 54.3921 63.541C53.414 63.541 52.6211 64.3339 52.6211 65.3121C52.6211 66.2902 53.414 67.0831 54.3921 67.0831Z" fill="#E6E6E6"/>
<path d="M63.357 67.0831C64.3351 67.0831 65.128 66.2902 65.128 65.3121C65.128 64.3339 64.3351 63.541 63.357 63.541C62.3789 63.541 61.5859 64.3339 61.5859 65.3121C61.5859 66.2902 62.3789 67.0831 63.357 67.0831Z" fill="#E6E6E6"/>
<path d="M72.3199 67.0831C73.298 67.0831 74.0909 66.2902 74.0909 65.3121C74.0909 64.3339 73.298 63.541 72.3199 63.541C71.3418 63.541 70.5488 64.3339 70.5488 65.3121C70.5488 66.2902 71.3418 67.0831 72.3199 67.0831Z" fill="#E6E6E6"/>
<path d="M81.2867 67.0831C82.2648 67.0831 83.0577 66.2902 83.0577 65.3121C83.0577 64.3339 82.2648 63.541 81.2867 63.541C80.3086 63.541 79.5156 64.3339 79.5156 65.3121C79.5156 66.2902 80.3086 67.0831 81.2867 67.0831Z" fill="#E6E6E6"/>
<path d="M90.2535 67.0831C91.2316 67.0831 92.0245 66.2902 92.0245 65.3121C92.0245 64.3339 91.2316 63.541 90.2535 63.541C89.2753 63.541 88.4824 64.3339 88.4824 65.3121C88.4824 66.2902 89.2753 67.0831 90.2535 67.0831Z" fill="#E6E6E6"/>
<path d="M99.2164 67.0831C100.194 67.0831 100.987 66.2902 100.987 65.3121C100.987 64.3339 100.194 63.541 99.2164 63.541C98.2382 63.541 97.4453 64.3339 97.4453 65.3121C97.4453 66.2902 98.2382 67.0831 99.2164 67.0831Z" fill="#E6E6E6"/>
<path d="M108.183 67.0831C109.161 67.0831 109.954 66.2902 109.954 65.3121C109.954 64.3339 109.161 63.541 108.183 63.541C107.205 63.541 106.412 64.3339 106.412 65.3121C106.412 66.2902 107.205 67.0831 108.183 67.0831Z" fill="#E6E6E6"/>
<path d="M117.146 67.0831C118.124 67.0831 118.917 66.2902 118.917 65.3121C118.917 64.3339 118.124 63.541 117.146 63.541C116.168 63.541 115.375 64.3339 115.375 65.3121C115.375 66.2902 116.168 67.0831 117.146 67.0831Z" fill="#E6E6E6"/>
<path d="M126.111 67.0831C127.089 67.0831 127.882 66.2902 127.882 65.3121C127.882 64.3339 127.089 63.541 126.111 63.541C125.133 63.541 124.34 64.3339 124.34 65.3121C124.34 66.2902 125.133 67.0831 126.111 67.0831Z" fill="#E6E6E6"/>
<path d="M45.4273 76.1632C46.4054 76.1632 47.1983 75.3703 47.1983 74.3921C47.1983 73.414 46.4054 72.6211 45.4273 72.6211C44.4492 72.6211 43.6562 73.414 43.6562 74.3921C43.6562 75.3703 44.4492 76.1632 45.4273 76.1632Z" fill="#E6E6E6"/>
<path d="M54.3921 76.1632C55.3703 76.1632 56.1632 75.3703 56.1632 74.3921C56.1632 73.414 55.3703 72.6211 54.3921 72.6211C53.414 72.6211 52.6211 73.414 52.6211 74.3921C52.6211 75.3703 53.414 76.1632 54.3921 76.1632Z" fill="#E6E6E6"/>
<path d="M45.4273 85.2394C46.4054 85.2394 47.1983 84.4464 47.1983 83.4683C47.1983 82.4902 46.4054 81.6973 45.4273 81.6973C44.4492 81.6973 43.6562 82.4902 43.6562 83.4683C43.6562 84.4464 44.4492 85.2394 45.4273 85.2394Z" fill="#E6E6E6"/>
<path d="M54.3921 85.2394C55.3703 85.2394 56.1632 84.4464 56.1632 83.4683C56.1632 82.4902 55.3703 81.6973 54.3921 81.6973C53.414 81.6973 52.6211 82.4902 52.6211 83.4683C52.6211 84.4464 53.414 85.2394 54.3921 85.2394Z" fill="#E6E6E6"/>
<path d="M72.3199 85.2394C73.298 85.2394 74.0909 84.4464 74.0909 83.4683C74.0909 82.4902 73.298 81.6973 72.3199 81.6973C71.3418 81.6973 70.5488 82.4902 70.5488 83.4683C70.5488 84.4464 71.3418 85.2394 72.3199 85.2394Z" fill="#E6E6E6"/>
<path d="M161.682 20.8936H91.4989C91.1543 20.8932 90.824 20.7562 90.5803 20.5125C90.3367 20.2689 90.1996 19.9385 90.1992 19.594V2.18446C90.1996 1.83988 90.3367 1.50954 90.5803 1.26588C90.824 1.02223 91.1543 0.885169 91.4989 0.884766H161.682C162.027 0.885169 162.357 1.02223 162.601 1.26588C162.845 1.50954 162.982 1.83988 162.982 2.18446V19.594C162.982 19.9385 162.845 20.2689 162.601 20.5125C162.357 20.7562 162.027 20.8932 161.682 20.8936ZM91.4989 1.40464C91.2922 1.40487 91.0939 1.4871 90.9477 1.63329C90.8016 1.77949 90.7193 1.97771 90.7191 2.18446V19.594C90.7193 19.8007 90.8016 19.9989 90.9477 20.1451C91.0939 20.2913 91.2922 20.3736 91.4989 20.3738H161.682C161.889 20.3736 162.087 20.2913 162.234 20.1451C162.38 19.9989 162.462 19.8007 162.462 19.594V2.18446C162.462 1.97771 162.38 1.77949 162.234 1.63329C162.087 1.4871 161.889 1.40487 161.682 1.40464H91.4989Z" fill="#E6E6E6"/>
<path d="M100.595 16.351C103.61 16.351 106.054 13.9071 106.054 10.8923C106.054 7.87754 103.61 5.43359 100.595 5.43359C97.5807 5.43359 95.1367 7.87754 95.1367 10.8923C95.1367 13.9071 97.5807 16.351 100.595 16.351Z" fill="#16A085"/>
<path d="M113.201 7.24805C112.96 7.24805 112.728 7.3439 112.557 7.51451C112.387 7.68513 112.291 7.91654 112.291 8.15783C112.291 8.39912 112.387 8.63053 112.557 8.80114C112.728 8.97176 112.96 9.06761 113.201 9.06761H137.375C137.616 9.06761 137.848 8.97176 138.018 8.80114C138.189 8.63053 138.285 8.39912 138.285 8.15783C138.285 7.91654 138.189 7.68513 138.018 7.51451C137.848 7.3439 137.616 7.24805 137.375 7.24805H113.201Z" fill="#E6E6E6"/>
<path d="M113.201 12.7148C112.96 12.7148 112.728 12.8107 112.557 12.9813C112.387 13.1519 112.291 13.3833 112.291 13.6246C112.291 13.8659 112.387 14.0973 112.557 14.2679C112.728 14.4386 112.96 14.5344 113.201 14.5344H156.091C156.332 14.5344 156.563 14.4386 156.734 14.2679C156.905 14.0973 157 13.8659 157 13.6246C157 13.3833 156.905 13.1519 156.734 12.9813C156.563 12.8107 156.332 12.7148 156.091 12.7148H113.201Z" fill="#E6E6E6"/>
<path d="M71.4831 56.2452H1.29969C0.955115 56.2448 0.62477 56.1077 0.381118 55.8641C0.137466 55.6204 0.000403821 55.2901 0 54.9455V37.536C0.000403821 37.1914 0.137466 36.8611 0.381118 36.6174C0.62477 36.3738 0.955115 36.2367 1.29969 36.2363H71.4831C71.8277 36.2367 72.1581 36.3738 72.4017 36.6174C72.6454 36.8611 72.7824 37.1914 72.7828 37.536V54.9455C72.7824 55.2901 72.6454 55.6204 72.4017 55.8641C72.1581 56.1077 71.8277 56.2448 71.4831 56.2452ZM1.29969 36.7562C1.09294 36.7564 0.894723 36.8387 0.748528 36.9849C0.602333 37.1311 0.520102 37.3293 0.519876 37.536V54.9455C0.520102 55.1523 0.602333 55.3505 0.748528 55.4967C0.894723 55.6429 1.09294 55.7251 1.29969 55.7253H71.4831C71.6899 55.7251 71.8881 55.6429 72.0343 55.4967C72.1805 55.3505 72.2627 55.1523 72.2629 54.9455V37.536C72.2627 37.3293 72.1805 37.1311 72.0343 36.9849C71.8881 36.8387 71.6899 36.7564 71.4831 36.7562H1.29969Z" fill="#E6E6E6"/>
<path d="M10.3982 51.7026C13.4129 51.7026 15.8569 49.2586 15.8569 46.2439C15.8569 43.2291 13.4129 40.7852 10.3982 40.7852C7.3834 40.7852 4.93945 43.2291 4.93945 46.2439C4.93945 49.2586 7.3834 51.7026 10.3982 51.7026Z" fill="#16A085"/>
<path d="M23.0055 42.5996C22.7642 42.5996 22.5328 42.6955 22.3622 42.8661C22.1916 43.0367 22.0957 43.2681 22.0957 43.5094C22.0957 43.7507 22.1916 43.9821 22.3622 44.1527C22.5328 44.3233 22.7642 44.4192 23.0055 44.4192H48.2195C48.4608 44.4192 48.6922 44.3233 48.8628 44.1527C49.0334 43.9821 49.1293 43.7507 49.1293 43.5094C49.1293 43.2681 49.0334 43.0367 48.8628 42.8661C48.6922 42.6955 48.4608 42.5996 48.2195 42.5996H23.0055Z" fill="#E6E6E6"/>
<path d="M23.0055 48.0645C22.7642 48.0645 22.5328 48.1603 22.3622 48.3309C22.1916 48.5015 22.0957 48.7329 22.0957 48.9742C22.0957 49.2155 22.1916 49.4469 22.3622 49.6176C22.5328 49.7882 22.7642 49.884 23.0055 49.884H65.8953C66.1366 49.884 66.368 49.7882 66.5386 49.6176C66.7092 49.4469 66.8051 49.2155 66.8051 48.9742C66.8051 48.7329 66.7092 48.5015 66.5386 48.3309C66.368 48.1603 66.1366 48.0645 65.8953 48.0645H23.0055Z" fill="#E6E6E6"/>
<path d="M134.909 94.4581H64.7255C64.3809 94.4577 64.0506 94.3206 63.8069 94.077C63.5632 93.8333 63.4262 93.503 63.4258 93.1584V75.7489C63.4262 75.4043 63.5632 75.074 63.8069 74.8303C64.0506 74.5867 64.3809 74.4496 64.7255 74.4492H134.909C135.253 74.4496 135.584 74.5867 135.827 74.8303C136.071 75.074 136.208 75.4043 136.209 75.7489V93.1584C136.208 93.503 136.071 93.8333 135.827 94.077C135.584 94.3206 135.253 94.4577 134.909 94.4581ZM64.7255 74.9691C64.5187 74.9693 64.3205 75.0516 64.1743 75.1977C64.0281 75.3439 63.9459 75.5422 63.9457 75.7489V93.1584C63.9459 93.3652 64.0281 93.5634 64.1743 93.7096C64.3205 93.8558 64.5187 93.938 64.7255 93.9382H134.909C135.116 93.938 135.314 93.8558 135.46 93.7096C135.606 93.5634 135.688 93.3652 135.689 93.1584V75.7489C135.688 75.5422 135.606 75.3439 135.46 75.1977C135.314 75.0516 135.116 74.9693 134.909 74.9691H64.7255Z" fill="#3F3D56"/>
<path d="M73.8239 89.9135C76.8387 89.9135 79.2826 87.4696 79.2826 84.4548C79.2826 81.44 76.8387 78.9961 73.8239 78.9961C70.8092 78.9961 68.3652 81.44 68.3652 84.4548C68.3652 87.4696 70.8092 89.9135 73.8239 89.9135Z" fill="#16A085"/>
<path d="M86.4293 80.8125C86.188 80.8125 85.9566 80.9084 85.786 81.079C85.6154 81.2496 85.5195 81.481 85.5195 81.7223C85.5195 81.9636 85.6154 82.195 85.786 82.3656C85.9566 82.5362 86.188 82.6321 86.4293 82.6321H109.564C109.805 82.6321 110.037 82.5362 110.207 82.3656C110.378 82.195 110.474 81.9636 110.474 81.7223C110.474 81.481 110.378 81.2496 110.207 81.079C110.037 80.9084 109.805 80.8125 109.564 80.8125H86.4293Z" fill="#E6E6E6"/>
<path d="M86.4293 86.2695C86.188 86.2695 85.9566 86.3654 85.786 86.536C85.6154 86.7066 85.5195 86.938 85.5195 87.1793C85.5195 87.4206 85.6154 87.652 85.786 87.8226C85.9566 87.9933 86.188 88.0891 86.4293 88.0891H129.319C129.56 88.0891 129.792 87.9933 129.962 87.8226C130.133 87.652 130.229 87.4206 130.229 87.1793C130.229 86.938 130.133 86.7066 129.962 86.536C129.792 86.3654 129.56 86.2695 129.319 86.2695H86.4293Z" fill="#E6E6E6"/>
<path d="M172.665 90.0434C169.617 99.1873 157.148 89.4892 157.148 89.4892L160.474 54.8532C165.461 50.9739 170.726 54.299 170.726 54.299L172.665 90.0434Z" fill="#E6E6E6"/>
<path d="M172.008 120.729L176.256 120.773L175.195 133.02L172.008 133.02L172.008 120.729Z" fill="#FFB8B8"/>
<path d="M171.195 131.982H177.471C178.532 131.984 179.548 132.405 180.298 133.155C181.048 133.905 181.47 134.922 181.471 135.982V136.112H171.195V131.982Z" fill="#2F2E41"/>
<path d="M160.49 120.729L155.787 120.729L157.303 133.02L160.49 133.021L160.49 120.729Z" fill="#FFB8B8"/>
<path d="M151.025 136.112V135.982C151.025 134.921 151.447 133.904 152.197 133.154C152.947 132.404 153.964 131.982 155.025 131.982L161.301 131.983L161.301 136.112L151.025 136.112Z" fill="#2F2E41"/>
<path d="M171.72 130.903L166.154 98.4572L160.997 130.485L155.772 130.775L154.379 87.8634L154.484 87.8399C155.348 87.6465 175.678 83.181 179.011 89.5691L179.028 89.6014L176.247 131.049L171.72 130.903Z" fill="#2F2E41"/>
<path d="M165.822 50.796C169.348 50.796 172.206 47.9377 172.206 44.4117C172.206 40.8857 169.348 38.0273 165.822 38.0273C162.296 38.0273 159.438 40.8857 159.438 44.4117C159.438 47.9377 162.296 50.796 165.822 50.796Z" fill="#FFB8B8"/>
<path d="M171.189 92.7774C170.44 92.5701 169.901 91.7107 169.491 90.0727C169.421 89.7903 162.792 61.5545 168.398 56.4389L169.69 52.8496L171.458 54.0285C172.084 54.0343 178.482 54.1963 179.029 58.2974C179.564 62.3117 181.021 89.2074 179.557 90.8804C179.528 90.9172 179.491 90.9473 179.45 90.9684C179.408 90.9895 179.362 91.0011 179.316 91.0024C177.831 91.0024 177.381 89.3553 177.275 88.8303C176.922 88.9766 175.87 89.5137 174.143 91.2414C173.073 92.3116 172.234 92.8245 171.54 92.8245C171.421 92.8248 171.303 92.809 171.189 92.7774Z" fill="#2F2E41"/>
<path d="M157.333 91.2414C155.605 89.5132 154.554 88.9762 154.202 88.8303C154.096 89.3553 153.645 91.0024 152.161 91.0024C152.114 91.0011 152.068 90.9894 152.026 90.9684C151.985 90.9473 151.948 90.9173 151.92 90.8804C150.455 89.2076 151.912 62.3118 152.447 58.2974C152.994 54.1963 159.392 54.0343 160.018 54.0285L161.786 52.8496L163.078 56.4389C168.684 61.5541 162.055 89.7903 161.985 90.0727C161.575 91.7108 161.036 92.5701 160.288 92.7774C160.173 92.809 160.055 92.8248 159.936 92.8245C159.243 92.8245 158.404 92.3115 157.333 91.2414Z" fill="#2F2E41"/>
<path d="M171.094 48.0588C172.174 47.282 172.992 46.1946 173.439 44.9416C173.886 43.6885 173.941 42.329 173.597 41.0439C173.252 39.7589 172.525 38.6091 171.511 37.7477C170.497 36.8862 169.245 36.3538 167.921 36.2213C167.333 36.1624 166.7 36.1712 166.213 35.8374C165.78 35.5409 165.547 35.0266 165.149 34.6844C164.896 34.4889 164.606 34.3477 164.296 34.2696C163.986 34.1915 163.664 34.1782 163.349 34.2306C162.72 34.339 162.11 34.5394 161.539 34.8252C160.123 35.4564 158.618 36.2332 157.974 37.6429C157.416 38.8641 157.662 40.3698 158.452 41.4555C159.283 42.5299 160.494 43.2449 161.836 43.4533C163.17 43.6526 164.532 43.5299 165.809 43.0955C166.652 42.8304 167.483 42.4691 168.366 42.4396C169.055 42.4165 169.736 42.599 170.321 42.9637C170.906 43.3284 171.369 43.8589 171.652 44.4877C171.935 45.1166 172.024 45.8153 171.908 46.495C171.793 47.1747 171.478 47.8047 171.003 48.3048" fill="#2F2E41"/>
<path d="M136.296 86.0311C136.665 86.0226 137.028 85.9415 137.366 85.7926C137.703 85.6436 138.008 85.4297 138.262 85.163C138.517 84.8964 138.716 84.5821 138.849 84.2383C138.983 83.8945 139.047 83.5279 139.038 83.1593L142.761 76.8775L139.885 74.2402L135.963 80.4295C135.239 80.499 134.571 80.8466 134.098 81.3989C133.626 81.9513 133.386 82.6655 133.429 83.3912C133.472 84.1169 133.795 84.7975 134.33 85.2899C134.865 85.7823 135.57 86.048 136.296 86.0311Z" fill="#FFB8B8"/>
<path d="M179.491 92.9133C179.8 92.712 180.066 92.4518 180.275 92.1475C180.483 91.8433 180.629 91.5011 180.705 91.1403C180.781 90.7795 180.786 90.4073 180.718 90.0449C180.65 89.6825 180.511 89.337 180.31 89.0281L180.167 81.7273L176.333 81L176.258 88.3268C175.68 88.767 175.294 89.4144 175.183 90.1329C175.072 90.8513 175.244 91.5848 175.663 92.179C176.082 92.7732 176.715 93.1818 177.429 93.3187C178.143 93.4557 178.882 93.3103 179.491 92.9133Z" fill="#FFB8B8"/>
<path d="M137.43 75.9347L137.387 75.8657L137.43 75.7966C143.014 66.829 154.736 55.6271 154.854 55.515L154.891 55.4797L156.339 55.4648L157.904 59.3639C157.417 60.3013 144.284 78.6279 142.55 79.8434C142.412 79.939 142.255 80.0045 142.09 80.0356C141.925 80.0667 141.756 80.0627 141.592 80.0239C141.303 79.9572 141.028 79.8402 140.78 79.678C139.18 78.6869 137.512 76.0644 137.43 75.9347Z" fill="#2F2E41"/>
<path d="M175.603 86.1659C175.448 86.1128 175.305 86.028 175.184 85.9169C175.063 85.8057 174.966 85.6706 174.9 85.5202C174.064 83.5694 177.647 58.9279 177.8 57.8799L177.829 57.6816L179.04 58.4493L179.052 58.5016C179.088 58.6589 182.617 74.357 181.66 84.7881L181.653 84.8627L181.585 84.8942C181.44 84.9617 178.5 86.3115 176.542 86.3115C176.223 86.3199 175.905 86.2706 175.603 86.1659Z" fill="#2F2E41"/>
<path d="M199.739 136.307H130.596C130.527 136.307 130.461 136.28 130.412 136.231C130.363 136.182 130.336 136.116 130.336 136.047C130.336 135.978 130.363 135.912 130.412 135.863C130.461 135.814 130.527 135.787 130.596 135.787H199.739C199.808 135.787 199.874 135.814 199.923 135.863C199.972 135.912 199.999 135.978 199.999 136.047C199.999 136.116 199.972 136.182 199.923 136.231C199.874 136.28 199.808 136.307 199.739 136.307Z" fill="#3F3D56"/>
</svg>
