<?xml version="1.0" encoding="UTF-8"?>
<svg id="Layer_2" data-name="Layer 2" xmlns="http://www.w3.org/2000/svg" xmlns:xlink="http://www.w3.org/1999/xlink" viewBox="0 0 1715.69 293.82">
  <defs>
    <style>
      .cls-1 {
        fill: url(#linear-gradient-2);
      }

      .cls-2 {
        fill: #2fca00;
      }

      .cls-3 {
        fill: url(#linear-gradient);
      }
    </style>
    <linearGradient id="linear-gradient" x1="-4.34" y1="263.5" x2="326.39" y2="34.05" gradientUnits="userSpaceOnUse">
      <stop offset="0" stop-color="#0159b3"/>
      <stop offset=".11" stop-color="#035ea9"/>
      <stop offset=".29" stop-color="#096f90"/>
      <stop offset=".53" stop-color="#148966"/>
      <stop offset=".8" stop-color="#23ad2d"/>
      <stop offset=".99" stop-color="#2fca00"/>
    </linearGradient>
    <linearGradient id="linear-gradient-2" x1="76.77" y1="380.4" x2="407.49" y2="150.95" xlink:href="#linear-gradient"/>
  </defs>
  <g id="Layer_1-2" data-name="Layer 1">
    <g>
      <path d="M508.64,214.59h-25.26l-11.55-22.56-27.61-54.13-27.61,54.13-11.55,22.56h-25.26l11.55-22.56,52.87-103.76,52.87,103.76,11.55,22.56Z"/>
      <path d="M623.59,192.22v22.56h-64.06c-6.32,0-12.27-1.44-17.68-4.15-7.94-3.97-14.44-10.47-18.23-18.41-2.71-5.41-4.15-11.37-4.15-17.68v-86.07h22.56v88.24c1.08,7.94,7.4,14.25,15.34,15.34l66.22.18Z"/>
      <path d="M745.57,98.39c6.14,6.31,9.93,14.8,9.93,24.18,0,13.71-8.12,25.62-19.85,31.04-3.07,1.44-6.32,2.35-9.74,2.71h-1.08v.18h-60.45v58.1h-22.56v-126.31h79.58c9.38,0,17.86,3.79,24,9.93l.18.18ZM726.26,132.85c4.15-1.8,6.86-5.96,6.86-10.47,0-4.15-2.16-7.04-3.43-8.3-1.44-1.44-4.15-3.25-8.12-3.25h-57.2v23.28h57.2c1.62,0,3.25-.36,4.69-1.08v-.18Z"/>
      <path d="M899.68,88.28v126.31h-22.56v-57.92h-81.2v57.92h-22.56v-126.31h22.56v45.83h81.2v-45.83h22.56Z"/>
      <path d="M1039.35,214.59h-25.26l-11.55-22.56-27.61-54.13-27.61,54.13-11.55,22.56h-25.26l11.55-22.56,52.87-103.76,52.87,103.76,11.55,22.56Z"/>
      <path d="M1176.31,151.44c0,15.52-5.59,29.59-14.8,40.6h14.8v22.56h-62.98c-34.83,0-63.16-28.33-63.16-63.16s28.33-63.16,63.16-63.16,63.16,28.33,63.16,63.16h-.18ZM1153.76,151.44c0-22.37-18.23-40.6-40.6-40.6s-40.6,18.23-40.6,40.6,18.23,40.6,40.6,40.6h1.08c21.83-.54,39.52-18.59,39.52-40.6Z"/>
      <path d="M1320.86,88.28v63.16c0,34.83-28.33,63.16-63.16,63.16s-63.16-28.33-63.16-63.16v-63.16h22.56v63.16c0,22.38,18.22,40.6,40.6,40.6s40.6-18.23,40.6-40.6v-63.16h22.56Z"/>
      <path d="M1446.81,214.59h-25.26l-11.55-22.56-27.61-54.13-27.61,54.13-11.55,22.56h-25.26l11.55-22.56,52.87-103.76,52.87,103.76,11.55,22.56Z"/>
      <path d="M1559.6,192.4l11.55,22.56h-25.26l-11.55-22.56-12.09-23.64-.54-1.08c-3.97-6.5-11.01-10.83-19.13-10.83h-22.56v58.1h-22.56v-126.31h79.76c9.38,0,17.86,3.79,24,9.92s9.92,14.62,9.92,24c0,13.71-8.12,25.62-19.85,31.04-3.07,1.44-6.32,2.35-9.74,2.71l18.04,36.09ZM1537.22,134.29c1.62,0,3.25-.36,4.69-1.08,4.15-1.8,6.86-5.95,6.86-10.47,0-4.15-2.16-7.04-3.43-8.3-1.44-1.44-4.15-3.25-8.12-3.25h-57.2v23.28l57.2-.18Z"/>
      <path d="M1660.47,138.99l54.67,75.61h-27.79l-43.67-60.27-31.94,29.05v31.22h-22.56v-126.31h22.56v64.6l18.59-16.96,16.78-15.34,35.19-32.3h33.38l-55.22,50.71Z"/>
    </g>
    <path class="cls-2" d="M38.63,98.48h0c0-21.34-17.3-38.63-38.63-38.63,21.34,0,38.63-17.3,38.63-38.63,0,21.34,17.3,38.63,38.63,38.63-21.34,0-38.63,17.3-38.63,38.63"/>
    <path class="cls-3" d="M38.63,262.49l117.42-134.05c16.92,26.1,21.17,56.97,8.01,85.79-11.32,24.79-31.93,38.56-56.68,48.03-12.3,4.7-26.07,8.63-39.45,8.63-10.28,0-20.34-2.32-29.3-8.41M26.85,244.44C7.64,188.82,66.03,108.67,105.16,73.13c33.47-30.39,108.54-77.15,154.33-55.46,50.99,24.16,2.79,106.5-19.44,136.52-5.33,7.2-11.82,13.77-16.48,21.21l-68.98-76.31-117.91,160.01c-.13.1-.27.14-.43.14-2.65,0-8.89-13.31-9.41-14.81M231.22.52C146.63,8.67,27.69,130.13,12.5,212.4c-13.36,72.35,43.67,92.76,104.19,75.81,79.77-22.34,167.49-111.36,184.89-192.86C312.51,44.1,295.73,0,241.75,0,238.39,0,234.87.17,231.22.52"/>
    <path class="cls-1" d="M265.18,269.36h39.63l-51.37-58.7c-20.5,21.09-2.73,41.27,11.74,58.7"/>
  </g>
</svg>