<svg width="21" height="14" viewBox="0 0 21 14" fill="none" xmlns="http://www.w3.org/2000/svg">
<path d="M6.58508 4.82677C6.58923 4.76256 6.56766 4.69926 6.52518 4.65093L4.60231 2.46332C4.55983 2.41499 4.49986 2.38551 4.43558 2.38136C4.37104 2.37724 4.30806 2.39878 4.25973 2.44126C3.37617 3.21792 2.64277 4.13387 2.0798 5.16364C2.04895 5.22014 2.04173 5.28658 2.05983 5.34831C2.07794 5.41007 2.11983 5.46213 2.17634 5.49298L4.73205 6.88997C4.76901 6.9102 4.80891 6.91977 4.84829 6.91977C4.93414 6.91977 5.01737 6.87409 5.06146 6.79343C5.43355 6.11278 5.91861 5.5072 6.50309 4.99344C6.55152 4.95102 6.581 4.89106 6.58508 4.82677Z" fill="#16A05E"/>
<path d="M7.44291 4.01627C7.4865 4.09846 7.57059 4.14529 7.65755 4.14529C7.69591 4.14529 7.73483 4.13617 7.77104 4.11695C8.45607 3.75365 9.193 3.5166 9.9614 3.41235C10.0942 3.39434 10.1873 3.27205 10.1693 3.13921L9.77783 0.253077C9.75983 0.120267 9.63718 0.0272937 9.5047 0.0451695C8.33777 0.203437 7.21879 0.56337 6.17883 1.11497C6.06043 1.17778 6.01536 1.32464 6.07811 1.44311L7.44291 4.01627Z" fill="#16A05E"/>
<path d="M4.31639 7.92224L1.50539 7.15956C1.44326 7.14277 1.37699 7.15123 1.32114 7.18326C1.26529 7.21528 1.22447 7.26816 1.20758 7.33028C0.976564 8.18204 0.859375 9.06485 0.859375 9.9542C0.859375 10.1064 0.863002 10.2591 0.870551 10.421C0.876597 10.5511 0.983884 10.6525 1.11284 10.6525C1.11663 10.6525 1.12049 10.6524 1.12428 10.6522L4.03378 10.5178C4.09806 10.5148 4.15861 10.4864 4.20191 10.4389C4.24528 10.3913 4.26799 10.3284 4.26499 10.2641C4.25992 10.1549 4.25747 10.0535 4.25747 9.9542C4.25747 9.36531 4.33476 8.78188 4.48717 8.22002C4.52217 8.09067 4.44574 7.95737 4.31639 7.92224Z" fill="#16A05E"/>
<path d="M15.1967 0.941921C14.1375 0.431302 13.0058 0.114865 11.8331 0.00120501C11.7687 -0.00526556 11.7051 0.0145382 11.6554 0.0554204C11.6057 0.0963353 11.5743 0.15529 11.5681 0.219407L11.2873 3.11848C11.2743 3.25188 11.3721 3.37054 11.5055 3.38345C12.2784 3.45832 13.0239 3.66675 13.7212 4.00286C13.7543 4.01887 13.7904 4.02698 13.8266 4.02698C13.8535 4.02698 13.8806 4.02243 13.9066 4.01338C13.9674 3.99217 14.0172 3.94763 14.0452 3.88966L15.3099 1.26591C15.3682 1.14519 15.3175 1.00009 15.1967 0.941921Z" fill="#16A05E"/>
<path d="M19.4752 5.01365C19.4908 4.9512 19.4812 4.88515 19.4481 4.82986C18.8457 3.82218 18.0777 2.935 17.1655 2.19307C17.1155 2.15248 17.0518 2.13346 16.9875 2.1399C16.9235 2.14653 16.8647 2.17827 16.8241 2.2282L14.9863 4.4878C14.9457 4.53777 14.9265 4.60179 14.9332 4.66581C14.9397 4.72983 14.9715 4.78862 15.0215 4.82927C15.6251 5.32009 16.1331 5.90688 16.5314 6.57335C16.5769 6.64936 16.6574 6.69159 16.74 6.69159C16.7824 6.69159 16.8253 6.68047 16.8643 6.65714L19.3643 5.16277C19.4195 5.12973 19.4594 5.0761 19.4752 5.01365Z" fill="#16A05E"/>
<path d="M20.4031 6.96127C20.363 6.83333 20.2268 6.76205 20.099 6.80222L17.3196 7.67306C17.1917 7.71313 17.1205 7.8493 17.1606 7.97718C17.3601 8.61398 17.4612 9.2791 17.4612 9.9541C17.4612 10.0535 17.4587 10.1549 17.4537 10.264C17.4507 10.3283 17.4734 10.3912 17.5168 10.4388C17.5601 10.4864 17.6206 10.5148 17.6849 10.5177L20.5944 10.6521C20.5982 10.6523 20.602 10.6524 20.6058 10.6524C20.7347 10.6524 20.842 10.551 20.8481 10.4209C20.8556 10.259 20.8593 10.1063 20.8593 9.9541C20.8592 8.93404 20.7058 7.92711 20.4031 6.96127Z" fill="#16A05E"/>
<path d="M10.8509 9.4385C10.8091 9.4385 10.7674 9.43987 10.726 9.44209L6.78316 7.11579C6.68666 7.05876 6.56414 7.07305 6.48329 7.15059C6.40238 7.22808 6.38296 7.34991 6.43571 7.44867L8.58652 11.4799C8.57861 11.5575 8.57439 11.6359 8.57439 11.715C8.57439 12.3231 8.81119 12.8948 9.24116 13.3247C9.67116 13.7547 10.2429 13.9915 10.851 13.9915C11.4591 13.9915 12.0307 13.7547 12.4607 13.3247C12.8907 12.8948 13.1275 12.3231 13.1275 11.715C13.1275 11.1069 12.8907 10.5352 12.4607 10.1053C12.0307 9.67529 11.459 9.4385 10.8509 9.4385Z" fill="#16A05E"/>
</svg>
